<svg height="512" viewBox="0 0 55 58" width="512" xmlns="http://www.w3.org/2000/svg"><g id="Page-1" fill="none" fill-rule="evenodd"><g id="028---Bot-Fixing" fill-rule="nonzero"><path id="Shape" d="m30.4 41.13c1.05 1.63 3.42 4.73 6.76 5.62l.84 3.25-2.74.35c-2.0695471-.7606414-3.9373253-1.9853019-5.46-3.58l-3.8-3.77z" fill="#285680"/><path id="Shape" d="m14 53h10v2c0 1.6568542-1.3431458 3-3 3h-4c-1.6568542 0-3-1.3431458-3-3z" fill="#285680"/><path id="Rectangle-path" d="m1 .62h2v13.38h-2z" fill="#a5a5a4"/><circle id="Oval" cx="2" cy="2" fill="#3b97d3" r="2"/><path id="Rectangle-path" d="m35 .62h2v13.38h-2z" fill="#a5a5a4"/><circle id="Oval" cx="36" cy="2" fill="#3b97d3" r="2"/><path id="Shape" d="m38 19.636c0 12.273-8.507 16.364-19 16.364s-19-4.091-19-16.364c0-11.454 8.507-19.636 19-19.636s19 8.182 19 19.636z" fill="#3b97d3"/><rect id="Rectangle-path" fill="#547580" height="18" rx="9" width="30" x="4" y="12"/><circle id="Oval" cx="11" cy="20" fill="#81ccb8" r="2"/><circle id="Oval" cx="27" cy="20" fill="#81ccb8" r="2"/><path id="Shape" d="m19 26c-1.35546.0583036-2.6818413-.4043376-3.707-1.293-.3573625-.3924894-.3458038-.9958028.02633-1.374316.3721338-.3785133.9751636-.4003241 1.37367-.049684.658334.5075391 1.4769529.7619604 2.307.717.8278281.0431581 1.6437452-.21155 2.3-.718.3989756-.3752273 1.0248131-.3623371 1.408.029.3832686.3889397.3805882 1.0143597-.006 1.4-1.0244863.886009-2.348779 1.3471148-3.702 1.289z" fill="#35495e"/><path id="Shape" d="m21 10h-4c-.5522847 0-1-.44771525-1-1s.4477153-1 1-1h4c.5522847 0 1 .44771525 1 1s-.4477153 1-1 1z" fill="#9fc9d3"/><path id="Shape" d="m20 7h-2c-.5522847 0-1-.44771525-1-1s.4477153-1 1-1h2c.5522847 0 1 .44771525 1 1s-.4477153 1-1 1z" fill="#9fc9d3"/><path id="Shape" d="m30.38 41.55-.72 6.45-.17 1.55c-.02.15-.04.3-.07.45-.4770287 2.3272666-2.5243476 3.9985473-4.9 4h-11.04c-2.3756524-.0014527-4.42297125-1.6727334-4.9-4-.03-.15-.05-.3-.07-.45l-.17-1.55-.72-6.45c-.15640871-1.4132687.29629586-2.8262862 1.24485592-3.8855434s2.30324678-1.6645539 3.72514408-1.6644566h12.82c1.4218973-.0000973 2.776584.6051994 3.7251441 1.6644566.94856 1.0592572 1.4012646 2.4722747 1.2448559 3.8855434z" fill="#4482c3"/><g fill="#285680"><path id="Shape" d="m16 36h6v3c0 1.6568542-1.3431458 3-3 3s-3-1.3431458-3-3z"/><path id="Shape" d="m17 49c0 .5522847-.4477153 1-1 1h-7.42c-.03-.15-.05-.3-.07-.45l-.17-1.55h7.66c.5522847 0 1 .4477153 1 1z"/><path id="Shape" d="m29.66 48-.17 1.55c-.02.15-.04.3-.07.45h-7.42c-.5522847 0-1-.4477153-1-1s.4477153-1 1-1z"/></g><path id="Shape" d="m53.956 40.631c1.4987996-2.8302409 1.3760944-6.2446474-.322-8.96-.1855738-.3116679-.5244275-.4994472-.8870743-.4915816-.3626467.0078656-.6930399.2101606-.8649257.5295816l-3.232 6.121c-.5178826.9726893-1.7234231 1.3455138-2.7.835l-1.769-.934c-.9722352-.5182579-1.3449271-1.7233697-.835-2.7l3.232-6.12c.1665811-.3222477.1471617-.7091506-.0508494-1.0130988-.1980112-.3039481-.5440705-.478057-.9061506-.4559012-3.5016616.1448488-6.6000268 2.3112042-7.9381922 5.5503289-1.3381654 3.2391246-.6722195 6.9606134 1.7061922 9.5346711l-5.77 10.922c-.7943017 1.4321229-.3432006 3.2347787 1.032 4.124.7065994.4230914 1.556062.5370861 2.3492076.3152549.7931456-.2218311 1.460214-.7599772 1.8447924-1.4882549l5.847-11.074c3.7705945.5543117 7.4815404-1.3263976 9.264-4.695z" fill="#bdc3c7"/></g></g></svg>