<svg height="512" viewBox="0 0 58 58" width="512" xmlns="http://www.w3.org/2000/svg"><g id="Page-1" fill="none" fill-rule="evenodd"><g id="005---Chat-Bot" fill-rule="nonzero"><path id="Rectangle-path" d="m9 4.13h2v11.87h-2z" fill="#a5a5a4"/><path id="Rectangle-path" d="m47 4.13h2v11.87h-2z" fill="#a5a5a4"/><path id="Shape" d="m29 8c-16.016 0-29 10.909-29 26.182 0 6.2 1.866 10.833 5.053 14.2.50754425.5618958.65565363 1.3616091.383 2.068-.69759589 1.951943-2.03742695 3.6091024-3.8 4.7-.31307056.1987214-.49047419.5543667-.46091184.9240009s.26123647.6925625.60191184.8389991c1.65267566.7019644 3.42749299 1.0713357 5.223 1.087 2.83948616-.1352565 5.5567299-1.1958842 7.737-3.02.4937056-.4048985 1.1525671-.546429 1.769-.38 4.0904528.98322 8.2873787 1.4535014 12.494 1.4 16.016 0 29-5.455 29-21.818 0-15.273-12.984-26.182-29-26.182z" fill="#3b97d3"/><rect id="Rectangle-path" fill="#547580" height="22" rx="11" width="48" x="5" y="23"/><circle id="Oval" cx="16" cy="32" fill="#81ccb8" r="4"/><circle id="Oval" cx="42" cy="32" fill="#81ccb8" r="4"/><circle id="Oval" cx="10" cy="3" fill="#3b97d3" r="3"/><circle id="Oval" cx="48" cy="3" fill="#3b97d3" r="3"/><path id="Shape" d="m26 35h6c.5522847 0 1 .4477153 1 1v1c0 2.209139-1.790861 4-4 4s-4-1.790861-4-4v-1c0-.5522847.4477153-1 1-1z" fill="#35495e"/><g fill="#9fc9d3"><path id="Shape" d="m33 20h-8c-.5522847 0-1-.4477153-1-1s.4477153-1 1-1h8c.5522847 0 1 .4477153 1 1s-.4477153 1-1 1z"/><path id="Shape" d="m30 16h-2c-.5522847 0-1-.4477153-1-1s.4477153-1 1-1h2c.5522847 0 1 .4477153 1 1s-.4477153 1-1 1z"/></g></g></g></svg>